<svg id="visual" viewBox="0 0 900 600" width="900" height="600" xmlns="http://www.w3.org/2000/svg" xmlns:xlink="http://www.w3.org/1999/xlink" version="1.1"><rect x="0" y="0" width="900" height="600" fill="#091a77"></rect><path d="M0 399L129 384L257 397L386 369L514 412L643 417L771 397L900 354L900 601L771 601L643 601L514 601L386 601L257 601L129 601L0 601Z" fill="#012037"></path><path d="M0 435L129 460L257 469L386 459L514 452L643 472L771 403L900 444L900 601L771 601L643 601L514 601L386 601L257 601L129 601L0 601Z" fill="#002350"></path><path d="M0 487L129 476L257 450L386 497L514 465L643 497L771 487L900 456L900 601L771 601L643 601L514 601L386 601L257 601L129 601L0 601Z" fill="#002166"></path><path d="M0 516L129 520L257 488L386 518L514 490L643 481L771 500L900 495L900 601L771 601L643 601L514 601L386 601L257 601L129 601L0 601Z" fill="#001978"></path><path d="M0 531L129 563L257 561L386 566L514 524L643 530L771 558L900 570L900 601L771 601L643 601L514 601L386 601L257 601L129 601L0 601Z" fill="#000587"></path></svg>