<svg id="visual" viewBox="0 0 900 600" width="900" height="600" xmlns="http://www.w3.org/2000/svg" xmlns:xlink="http://www.w3.org/1999/xlink" version="1.1"><path d="M0 43L13.7 50C27.3 57 54.7 71 82 82C109.3 93 136.7 101 163.8 99C191 97 218 85 245.2 76C272.3 67 299.7 61 327 55C354.3 49 381.7 43 409 52C436.3 61 463.7 85 491 96C518.3 107 545.7 105 573 99C600.3 93 627.7 83 654.8 78C682 73 709 73 736.2 69C763.3 65 790.7 57 818 59C845.3 61 872.7 73 886.3 79L900 85L900 0L886.3 0C872.7 0 845.3 0 818 0C790.7 0 763.3 0 736.2 0C709 0 682 0 654.8 0C627.7 0 600.3 0 573 0C545.7 0 518.3 0 491 0C463.7 0 436.3 0 409 0C381.7 0 354.3 0 327 0C299.7 0 272.3 0 245.2 0C218 0 191 0 163.8 0C136.7 0 109.3 0 82 0C54.7 0 27.3 0 13.7 0L0 0Z" fill="#3c6bc9"></path><path d="M0 187L13.7 197C27.3 207 54.7 227 82 243C109.3 259 136.7 271 163.8 276C191 281 218 279 245.2 270C272.3 261 299.7 245 327 234C354.3 223 381.7 217 409 218C436.3 219 463.7 227 491 243C518.3 259 545.7 283 573 297C600.3 311 627.7 315 654.8 298C682 281 709 243 736.2 216C763.3 189 790.7 173 818 183C845.3 193 872.7 229 886.3 247L900 265L900 83L886.3 77C872.7 71 845.3 59 818 57C790.7 55 763.3 63 736.2 67C709 71 682 71 654.8 76C627.7 81 600.3 91 573 97C545.7 103 518.3 105 491 94C463.7 83 436.3 59 409 50C381.7 41 354.3 47 327 53C299.7 59 272.3 65 245.2 74C218 83 191 95 163.8 97C136.7 99 109.3 91 82 80C54.7 69 27.3 55 13.7 48L0 41Z" fill="#2557ba"></path><path d="M0 301L13.7 302C27.3 303 54.7 305 82 325C109.3 345 136.7 383 163.8 398C191 413 218 405 245.2 394C272.3 383 299.7 369 327 364C354.3 359 381.7 363 409 365C436.3 367 463.7 367 491 368C518.3 369 545.7 371 573 384C600.3 397 627.7 421 654.8 405C682 389 709 333 736.2 306C763.3 279 790.7 281 818 299C845.3 317 872.7 351 886.3 368L900 385L900 263L886.3 245C872.7 227 845.3 191 818 181C790.7 171 763.3 187 736.2 214C709 241 682 279 654.8 296C627.7 313 600.3 309 573 295C545.7 281 518.3 257 491 241C463.7 225 436.3 217 409 216C381.7 215 354.3 221 327 232C299.7 243 272.3 259 245.2 268C218 277 191 279 163.8 274C136.7 269 109.3 257 82 241C54.7 225 27.3 205 13.7 195L0 185Z" fill="#0044ab"></path><path d="M0 559L13.7 551C27.3 543 54.7 527 82 517C109.3 507 136.7 503 163.8 511C191 519 218 539 245.2 543C272.3 547 299.7 535 327 525C354.3 515 381.7 507 409 513C436.3 519 463.7 539 491 544C518.3 549 545.7 539 573 540C600.3 541 627.7 553 654.8 548C682 543 709 521 736.2 510C763.3 499 790.7 499 818 507C845.3 515 872.7 531 886.3 539L900 547L900 383L886.3 366C872.7 349 845.3 315 818 297C790.7 279 763.3 277 736.2 304C709 331 682 387 654.8 403C627.7 419 600.3 395 573 382C545.7 369 518.3 367 491 366C463.7 365 436.3 365 409 363C381.7 361 354.3 357 327 362C299.7 367 272.3 381 245.2 392C218 403 191 411 163.8 396C136.7 381 109.3 343 82 323C54.7 303 27.3 301 13.7 300L0 299Z" fill="#003c94"></path><path d="M0 601L13.7 601C27.3 601 54.7 601 82 601C109.3 601 136.7 601 163.8 601C191 601 218 601 245.2 601C272.3 601 299.7 601 327 601C354.3 601 381.7 601 409 601C436.3 601 463.7 601 491 601C518.3 601 545.7 601 573 601C600.3 601 627.7 601 654.8 601C682 601 709 601 736.2 601C763.3 601 790.7 601 818 601C845.3 601 872.7 601 886.3 601L900 601L900 545L886.3 537C872.7 529 845.3 513 818 505C790.7 497 763.3 497 736.2 508C709 519 682 541 654.8 546C627.7 551 600.3 539 573 538C545.7 537 518.3 547 491 542C463.7 537 436.3 517 409 511C381.7 505 354.3 513 327 523C299.7 533 272.3 545 245.2 541C218 537 191 517 163.8 509C136.7 501 109.3 505 82 515C54.7 525 27.3 541 13.7 549L0 557Z" fill="#00347e"></path></svg>